HIERARCHY
ROOT Hips
{
    OFFSET 0.000000 0.000000 0.000000
    CHANNELS 6 Xposition Yposition Zposition Zrotation Xrotation Yrotation
    JOINT Spine
    {
        OFFSET -0.000000 14.517291 0.000000
        CHANNELS 3 Zrotation Xrotation Yrotation
        JOINT Spine1
        {
            OFFSET -0.000000 37.558300 0.000000
            CHANNELS 3 Zrotation Xrotation Yrotation
            JOINT Neck
            {
                OFFSET -0.000000 37.404057 3.400369
                CHANNELS 3 Zrotation Xrotation Yrotation
                JOINT Head
                {
                    OFFSET -0.000000 24.785618 -3.540803
                    CHANNELS 3 Zrotation Xrotation Yrotation
                    End Site
                    {
                        OFFSET -0.000000 35.408028 0.000000
                    }
                }
            }
            JOINT LeftShoulder
            {
                OFFSET 6.992933 33.973492 -0.192664
                CHANNELS 3 Zrotation Xrotation Yrotation
                JOINT LeftArm
                {
                    OFFSET 21.527611 0.000000 0.000000
                    CHANNELS 3 Zrotation Xrotation Yrotation
                    JOINT LeftForeArm
                    {
                        OFFSET 56.353916 0.000000 0.000000
                        CHANNELS 3 Zrotation Xrotation Yrotation
                        JOINT LeftHand
                        {
                            OFFSET 47.774071 0.000000 0.000000
                            CHANNELS 3 Zrotation Xrotation Yrotation
                            End Site
                            {
                                OFFSET 26.556021 0.000000 0.000000
                            }
                        }
                    }
                }
            }
            JOINT RightShoulder
            {
                OFFSET -7.065357 33.973492 -0.192664
                CHANNELS 3 Zrotation Xrotation Yrotation
                JOINT RightArm
                {
                    OFFSET -21.527611 0.000000 0.000000
                    CHANNELS 3 Zrotation Xrotation Yrotation
                    JOINT RightForeArm
                    {
                        OFFSET -56.353916 0.000000 0.000000
                        CHANNELS 3 Zrotation Xrotation Yrotation
                        JOINT RightHand
                        {
                            OFFSET -47.774071 0.000000 0.000000
                            CHANNELS 3 Zrotation Xrotation Yrotation
                            End Site
                            {
                                OFFSET -26.556021 0.000000 0.000000
                            }
                        }
                    }
                }
            }
        }
    }
    JOINT LeftUpLeg
    {
        OFFSET 17.704014 0.000000 0.000000
        CHANNELS 3 Zrotation Xrotation Yrotation
        JOINT LeftLeg
        {
            OFFSET -0.000000 -81.181816 0.000000
            CHANNELS 3 Zrotation Xrotation Yrotation
            JOINT LeftFoot
            {
                OFFSET -0.000000 -62.821102 0.000000
                CHANNELS 3 Zrotation Xrotation Yrotation
                JOINT LeftToeBase
                {
                    OFFSET -0.000000 -11.507608 26.556021
                    CHANNELS 3 Zrotation Xrotation Yrotation
                    End Site
                    {
                        OFFSET -0.000000 0.000000 7.081605
                    }
                }
            }
        }
    }
    JOINT RightUpLeg
    {
        OFFSET -17.704014 0.000000 0.000000
        CHANNELS 3 Zrotation Xrotation Yrotation
        JOINT RightLeg
        {
            OFFSET -0.000000 -81.181816 0.000000
            CHANNELS 3 Zrotation Xrotation Yrotation
            JOINT RightFoot
            {
                OFFSET -0.000000 -62.821102 0.000000
                CHANNELS 3 Zrotation Xrotation Yrotation
                JOINT RightToeBase
                {
                    OFFSET -0.000000 -11.507608 26.556021
                    CHANNELS 3 Zrotation Xrotation Yrotation
                    End Site
                    {
                        OFFSET -0.000000 0.000000 7.081605
                    }
                }
            }
        }
    }
}
MOTION
Frames:    6
Frame Time:    0.008333
-25.747663    142.003113    -50.254238    1.814438    4.700828    9.367953    -1.749869    4.022960    12.752205    -4.640707    -0.951850    4.192875    -6.539644    4.077161    -13.146317    17.082657    -11.295505    -8.893950    -1.915377    3.270985    -4.141065    -40.973373    12.183802    -47.080723    -4.747687    -25.818134    -132.582809    -4.255736    -34.920475    -7.552970    -3.974424    13.329927    3.315537    42.447933    12.302057    54.373833    -47.354668    -36.985153    44.565468    14.270151    -14.764147    31.976271    1.005077    -46.206478    -22.806856    -16.271999    32.110512    -17.450321    -9.722375    -0.829246    34.332424    0.000000    0.000000    0.000000    2.270475    20.324379    -17.518972    1.077897    18.722343    -2.383161    4.492573    -35.152370    -5.901634    0.000000    0.000000    0.000000    
-25.753683    142.002609    -50.257038    1.806703    4.698208    9.345149    -1.741975    4.013319    12.753486    -4.639178    -0.944315    4.193757    -6.514328    4.067867    -13.143944    17.056963    -11.291143    -8.900584    -1.921915    3.269202    -4.145329    -40.997566    12.170789    -47.071125    -4.766233    -25.775141    -132.559494    -4.231373    -34.914158    -7.510461    -3.970153    13.336010    3.307506    42.477806    12.312096    54.416958    -47.306927    -36.926132    44.552563    14.342823    -14.692288    32.051239    1.032251    -46.206341    -22.787544    -16.267433    32.117596    -17.444677    -9.715399    -0.835821    34.326397    0.000000    0.000000    0.000000    2.272853    20.310577    -17.501019    1.068075    18.746225    -2.361443    4.494359    -35.166592    -5.925793    0.000000    0.000000    0.000000    
-25.751343    142.004105    -50.265373    1.809889    4.691528    9.318698    -1.735355    4.016206    12.750836    -4.654384    -0.938850    4.193031    -6.466598    4.054337    -13.137843    17.006901    -11.289734    -8.911024    -1.914140    3.274520    -4.139485    -41.020180    12.172350    -47.070621    -4.779347    -25.750397    -132.548737    -4.211668    -34.916054    -7.483737    -3.949882    13.332407    3.312039    42.461807    12.341413    54.450939    -47.285793    -36.888203    44.496185    14.433101    -14.646800    32.150383    1.042568    -46.199081    -22.783257    -16.266668    32.119122    -17.438883    -9.716828    -0.836986    34.346409    0.000000    0.000000    0.000000    2.254575    20.294952    -17.452919    1.074047    18.785692    -2.367159    4.493615    -35.179626    -5.934824    0.000000    0.000000    0.000000    
-25.753611    142.006271    -50.274437    1.811877    4.681857    9.287106    -1.733510    4.026068    12.757066    -4.651272    -0.934773    4.195286    -6.466385    4.045161    -13.141312    17.004019    -11.293095    -8.914354    -1.928987    3.269399    -4.143493    -41.021732    12.172994    -47.062283    -4.784533    -25.751900    -132.538559    -4.220860    -34.925362    -7.457726    -3.955892    13.333117    3.315728    42.445869    12.379056    54.485970    -47.277988    -36.867599    44.436222    14.511989    -14.629799    32.181385    1.066342    -46.190929    -22.778475    -16.273291    32.119781    -17.420061    -9.723048    -0.843702    34.353512    0.000000    0.000000    0.000000    2.237952    20.278021    -17.398624    1.072906    18.837061    -2.359688    4.471326    -35.194775    -5.961857    0.000000    0.000000    0.000000    
-25.754803    142.009491    -50.286430    1.813292    4.672719    9.251942    -1.730113    4.036903    12.761929    -4.659400    -0.935468    4.196809    -6.439669    4.042237    -13.137771    16.988876    -11.303690    -8.915602    -1.916925    3.266922    -4.137563    -41.047867    12.193179    -47.059437    -4.786797    -25.741594    -132.537109    -4.209220    -34.921028    -7.441815    -3.947706    13.330743    3.331841    42.409779    12.414434    54.507187    -47.254284    -36.848591    44.377163    14.551460    -14.630405    32.232628    1.091370    -46.180946    -22.749805    -16.265884    32.119656    -17.425194    -9.737823    -0.845563    34.370037    0.000000    0.000000    0.000000    2.221674    20.258068    -17.375807    1.063446    18.885382    -2.336837    4.472438    -35.214798    -5.973385    0.000000    0.000000    0.000000    
-25.754435    142.012283    -50.298954    1.820730    4.660820    9.220662    -1.732416    4.050913    12.768448    -4.655457    -0.932074    4.199063    -6.440611    4.042219    -13.143778    16.984821    -11.313871    -8.921307    -1.920625    3.268874    -4.144964    -41.046204    12.206837    -47.053707    -4.779173    -25.766821    -132.537399    -4.237759    -34.928329    -7.442971    -3.956088    13.332631    3.337321    42.358231    12.470241    54.548912    -47.302071    -36.826904    44.247425    14.580740    -14.630816    32.292809    1.107468    -46.165554    -22.745813    -16.268166    32.107075    -17.397276    -9.742586    -0.833883    34.368546    0.000000    0.000000    0.000000    2.196610    20.245668    -17.332821    1.066263    18.930174    -2.342339    4.465639    -35.233318    -5.956333    0.000000    0.000000    0.000000    
